<svg xmlns="http://www.w3.org/2000/svg" viewBox="0 0 600 600">
  <!-- Background with subtle gradient -->
  <defs>
    <linearGradient id="bgGradient" x1="0%" y1="0%" x2="100%" y2="100%">
      <stop offset="0%" style="stop-color:#e3f2fd;stop-opacity:1"/>
      <stop offset="100%" style="stop-color:#bbdefb;stop-opacity:1"/>
    </linearGradient>
    <radialGradient id="globeGradient" cx="50%" cy="50%" r="50%" fx="50%" fy="50%">
      <stop offset="0%" style="stop-color:#4285F4;stop-opacity:0.15"/>
      <stop offset="70%" style="stop-color:#4285F4;stop-opacity:0.08"/>
      <stop offset="100%" style="stop-color:#4285F4;stop-opacity:0.05"/>
    </radialGradient>
    <pattern id="dots" width="20" height="20" patternUnits="userSpaceOnUse">
      <circle cx="10" cy="10" r="1.5" fill="#4285F4" fill-opacity="0.3"/>
    </pattern>
    <linearGradient id="blueGradient" x1="0%" y1="0%" x2="100%" y2="100%">
      <stop offset="0%" style="stop-color:#4285F4;stop-opacity:1"/>
      <stop offset="100%" style="stop-color:#5c6bc0;stop-opacity:1"/>
    </linearGradient>
    <linearGradient id="greenGradient" x1="0%" y1="0%" x2="100%" y2="100%">
      <stop offset="0%" style="stop-color:#34a853;stop-opacity:1"/>
      <stop offset="100%" style="stop-color:#66bb6a;stop-opacity:1"/>
    </linearGradient>
    <linearGradient id="redGradient" x1="0%" y1="0%" x2="100%" y2="100%">
      <stop offset="0%" style="stop-color:#ea4335;stop-opacity:1"/>
      <stop offset="100%" style="stop-color:#ef5350;stop-opacity:1"/>
    </linearGradient>
    <linearGradient id="yellowGradient" x1="0%" y1="0%" x2="100%" y2="100%">
      <stop offset="0%" style="stop-color:#fbbc05;stop-opacity:1"/>
      <stop offset="100%" style="stop-color:#ffd54f;stop-opacity:1"/>
    </linearGradient>
    <filter id="glow" x="-50%" y="-50%" width="200%" height="200%">
      <feGaussianBlur stdDeviation="2" result="blur"/>
      <feComposite in="SourceGraphic" in2="blur" operator="over"/>
    </filter>
    <filter id="neon">
      <feGaussianBlur stdDeviation="2.5" result="blur"/>
      <feFlood flood-color="#4285F4" flood-opacity="0.5" result="color"/>
      <feComposite in="color" in2="blur" operator="in" result="glow"/>
      <feComposite in="SourceGraphic" in2="glow" operator="over"/>
    </filter>
  </defs>
  <rect width="600" height="600" fill="url(#bgGradient)"/>
  <rect width="600" height="600" fill="url(#dots)"/>
  
  <!-- Globe element in the background with enhanced glow -->
  <circle cx="450" cy="150" r="120" fill="url(#globeGradient)" filter="url(#glow)"/>
  <circle cx="450" cy="150" r="120" fill="none" stroke="#4285F4" stroke-width="1" stroke-opacity="0.25"/>
  
  <!-- Globe grid lines with more contrast -->
  <path d="M330 150 L570 150" stroke="#4285F4" stroke-width="1" stroke-opacity="0.25"/>
  <path d="M340 120 L560 120" stroke="#4285F4" stroke-width="0.8" stroke-opacity="0.25"/>
  <path d="M340 180 L560 180" stroke="#4285F4" stroke-width="0.8" stroke-opacity="0.25"/>
  <path d="M350 90 L550 90" stroke="#4285F4" stroke-width="0.6" stroke-opacity="0.25"/>
  <path d="M350 210 L550 210" stroke="#4285F4" stroke-width="0.6" stroke-opacity="0.25"/>
  
  <path d="M450 30 L450 270" stroke="#4285F4" stroke-width="1" stroke-opacity="0.25"/>
  <path d="M420 40 L420 260" stroke="#4285F4" stroke-width="0.8" stroke-opacity="0.25"/>
  <path d="M480 40 L480 260" stroke="#4285F4" stroke-width="0.8" stroke-opacity="0.25"/>
  <path d="M390 50 L390 250" stroke="#4285F4" stroke-width="0.6" stroke-opacity="0.25"/>
  <path d="M510 50 L510 250" stroke="#4285F4" stroke-width="0.6" stroke-opacity="0.25"/>
  
  <!-- Digital connections on globe with glowing effect -->
  <circle cx="390" cy="110" r="4" fill="#4285F4" fill-opacity="0.7" filter="url(#glow)"/>
  <circle cx="510" cy="190" r="4" fill="#34a853" fill-opacity="0.7" filter="url(#glow)"/>
  <circle cx="450" cy="90" r="4" fill="#ea4335" fill-opacity="0.7" filter="url(#glow)"/>
  <circle cx="410" cy="200" r="4" fill="#fbbc05" fill-opacity="0.7" filter="url(#glow)"/>
  <circle cx="480" cy="120" r="4" fill="#5c6bc0" fill-opacity="0.7" filter="url(#glow)"/>
  
  <path d="M390 110 L510 190" stroke="#4285F4" stroke-width="1.5" stroke-opacity="0.5" filter="url(#glow)"/>
  <path d="M450 90 L410 200" stroke="#ea4335" stroke-width="1.5" stroke-opacity="0.5" filter="url(#glow)"/>
  <path d="M480 120 L410 200" stroke="#5c6bc0" stroke-width="1.5" stroke-opacity="0.5" filter="url(#glow)"/>
  <path d="M390 110 L480 120" stroke="#34a853" stroke-width="1.5" stroke-opacity="0.5" filter="url(#glow)"/>
  
  <!-- Dynamic background elements with more vibrant colors and glow effects -->
  <path d="M0,150 Q150,80 300,150 T600,150" fill="none" stroke="#4285F4" stroke-width="3" stroke-opacity="0.3" filter="url(#glow)"/>
  <path d="M0,250 Q150,180 300,250 T600,250" fill="none" stroke="#34a853" stroke-width="3" stroke-opacity="0.3" filter="url(#glow)"/>
  <path d="M0,350 Q150,280 300,350 T600,350" fill="none" stroke="#fbbc05" stroke-width="3" stroke-opacity="0.3" filter="url(#glow)"/>
  <path d="M0,450 Q150,380 300,450 T600,450" fill="none" stroke="#ea4335" stroke-width="3" stroke-opacity="0.3" filter="url(#glow)"/>
  
  <!-- Larger, more vibrant blob shapes in background -->
  <circle cx="100" cy="100" r="120" fill="#4285F4" fill-opacity="0.12"/>
  <circle cx="550" cy="100" r="140" fill="#34a853" fill-opacity="0.1"/>
  <circle cx="100" cy="500" r="130" fill="#fbbc05" fill-opacity="0.11"/>
  <circle cx="550" cy="450" r="110" fill="#ea4335" fill-opacity="0.12"/>
  
  <!-- Admin dashboard elements -->
  
  <!-- Enhanced glossy effect and glowing elements for central hub -->
  <defs>
    <linearGradient id="glossyEffect" x1="0%" y1="0%" x2="0%" y2="100%">
      <stop offset="0%" style="stop-color:#FFFFFF;stop-opacity:0.6"/>
      <stop offset="50%" style="stop-color:#FFFFFF;stop-opacity:0.2"/>
      <stop offset="100%" style="stop-color:#FFFFFF;stop-opacity:0"/>
    </linearGradient>
    <filter id="innerGlow">
      <feGaussianBlur stdDeviation="2" result="blur"/>
      <feComposite in="SourceGraphic" in2="blur" operator="arithmetic" k2="-1" k3="1"/>
      <feFlood flood-color="#4285F4" flood-opacity="0.8"/>
      <feComposite in2="SourceGraphic" operator="in"/>
      <feComposite in2="SourceGraphic" operator="over"/>
    </filter>
  </defs>
  
  <!-- Central hub circle with connecting lines (dashboard concept) -->
  <circle cx="300" cy="300" r="80" fill="white" stroke="#4285F4" stroke-width="3" stroke-opacity="0.5"/>
  <circle cx="300" cy="300" r="70" fill="white" stroke="#5c6bc0" stroke-width="2.5" stroke-opacity="0.6"/>
  <circle cx="300" cy="300" r="60" fill="white" stroke="#4285F4" stroke-width="2" stroke-opacity="0.7"/>
  <circle cx="300" cy="300" r="80" fill="url(#glossyEffect)" stroke="none"/>
  
  <!-- Dashboard icon in center with enhanced styling and glow -->
  <rect x="275" y="275" width="50" height="50" rx="5" fill="#e8f0fe" stroke="#4285F4" stroke-width="2.5" filter="url(#innerGlow)"/>
  <path d="M285 295 H315 M285 300 H305 M285 305 H310" stroke="#5c6bc0" stroke-width="2.5" stroke-linecap="round"/>
  <path d="M290 285 L295 290 L305 280" stroke="#4285F4" stroke-width="3" stroke-linecap="round"/>
  
  <!-- Connecting sections -->
  <!-- Sales section with enhanced glowing effect -->
  <g transform="translate(420, 200)">
    <circle cx="0" cy="0" r="40" fill="white" stroke="#4285F4" stroke-width="3" stroke-opacity="0.6"/>
    <circle cx="0" cy="0" r="35" fill="white" stroke="url(#blueGradient)" stroke-width="4" stroke-opacity="0.4"/>
    <path d="M-15 5 L-5 -10 L5 0 L15 -15" stroke="url(#blueGradient)" stroke-width="4" fill="none" stroke-linecap="round" filter="url(#glow)"/>
    <line x1="-20" y1="15" x2="20" y2="15" stroke="#4285F4" stroke-width="1.5" stroke-opacity="0.6"/>
    <line x1="-15" y1="20" x2="15" y2="20" stroke="#4285F4" stroke-width="1.5" stroke-opacity="0.6"/>
  </g>
  <line x1="363" y1="237" x2="380" y2="220" stroke="#4285F4" stroke-width="2.5" stroke-opacity="0.6" filter="url(#neon)"/>
  
  <!-- Products section with enhanced glowing effect -->
  <g transform="translate(180, 180)">
    <circle cx="0" cy="0" r="45" fill="white" stroke="#34a853" stroke-width="3" stroke-opacity="0.6"/>
    <circle cx="0" cy="0" r="40" fill="white" stroke="url(#greenGradient)" stroke-width="4" stroke-opacity="0.4"/>
    <rect x="-20" y="-15" width="15" height="30" rx="2" fill="#e8f5e9" stroke="#66bb6a" stroke-width="1.5" filter="url(#glow)"/>
    <rect x="-2" y="-20" width="15" height="40" rx="2" fill="#c8e6c9" stroke="#4caf50" stroke-width="1.5" filter="url(#glow)"/>
    <rect x="16" y="-10" width="15" height="30" rx="2" fill="#a5d6a7" stroke="#43a047" stroke-width="1.5" filter="url(#glow)"/>
  </g>
  <line x1="237" y1="237" x2="220" y2="220" stroke="#4caf50" stroke-width="2.5" stroke-opacity="0.6" filter="url(#neon)"/>
  
  <!-- Orders section with enhanced glowing effect -->
  <g transform="translate(180, 420)">
    <circle cx="0" cy="0" r="45" fill="white" stroke="#fbbc05" stroke-width="3" stroke-opacity="0.6"/>
    <circle cx="0" cy="0" r="40" fill="white" stroke="url(#yellowGradient)" stroke-width="4" stroke-opacity="0.4"/>
    <rect x="-20" y="-10" width="40" height="7" rx="1" fill="#fff8e1" stroke="#ffd54f" stroke-width="1" filter="url(#glow)"/>
    <rect x="-20" y="0" width="40" height="7" rx="1" fill="#ffecb3" stroke="#ffca28" stroke-width="1" filter="url(#glow)"/>
    <rect x="-20" y="10" width="40" height="7" rx="1" fill="#ffe082" stroke="#ffb300" stroke-width="1" filter="url(#glow)"/>
    <circle cx="-25" cy="-7" r="2.5" fill="#ff9800" filter="url(#glow)"/>
    <circle cx="-25" cy="3" r="2.5" fill="#ff9800" filter="url(#glow)"/>
    <circle cx="-25" cy="13" r="2.5" fill="#ff9800" filter="url(#glow)"/>
  </g>
  <line x1="237" y1="363" x2="220" y2="380" stroke="#ffb300" stroke-width="2.5" stroke-opacity="0.6" filter="url(#neon)"/>
  
  <!-- Customers section with enhanced glowing effect -->
  <g transform="translate(420, 420)">
    <circle cx="0" cy="0" r="40" fill="white" stroke="#ea4335" stroke-width="3" stroke-opacity="0.6"/>
    <circle cx="0" cy="0" r="35" fill="white" stroke="url(#redGradient)" stroke-width="4" stroke-opacity="0.4"/>
    <circle cx="-15" cy="-5" r="10" fill="#ffebee" stroke="#ef5350" stroke-width="1.5" filter="url(#glow)"/>
    <circle cx="5" cy="-5" r="10" fill="#ffcdd2" stroke="#e53935" stroke-width="1.5" filter="url(#glow)"/>
    <circle cx="20" cy="-5" r="10" fill="#ef9a9a" stroke="#d32f2f" stroke-width="1.5" filter="url(#glow)"/>
    <path d="M-15 10 C-15 20, 20 20, 20 10" stroke="#e53935" stroke-width="2" fill="none"/>
  </g>
  <line x1="363" y1="363" x2="380" y2="380" stroke="#e53935" stroke-width="2.5" stroke-opacity="0.6" filter="url(#neon)"/>
  
  <!-- Decorative elements -->
  <!-- Enhanced decorative elements with glow effects -->
  <circle cx="300" cy="120" r="25" fill="white" stroke="#4285F4" stroke-width="2" stroke-opacity="0.6"/>
  <path d="M290 120 L300 110 L310 120 L300 130 Z" fill="url(#blueGradient)" filter="url(#glow)"/>
  <line x1="300" y1="145" x2="300" y2="220" stroke="#4285F4" stroke-width="2.5" stroke-opacity="0.6" filter="url(#neon)"/>
  
  <circle cx="300" cy="480" r="25" fill="white" stroke="#ffb300" stroke-width="2" stroke-opacity="0.6"/>
  <path d="M290 480 L310 480 M300 470 L300 490" stroke="url(#yellowGradient)" stroke-width="3" stroke-linecap="round" filter="url(#glow)"/>
  <line x1="300" y1="455" x2="300" y2="380" stroke="#ffd54f" stroke-width="2.5" stroke-opacity="0.6" filter="url(#neon)"/>
  
  <circle cx="120" cy="300" r="25" fill="white" stroke="#4caf50" stroke-width="2" stroke-opacity="0.6"/>
  <path d="M115 295 L125 305 M125 295 L115 305" stroke="url(#greenGradient)" stroke-width="3" stroke-linecap="round" filter="url(#glow)"/>
  <line x1="145" y1="300" x2="220" y2="300" stroke="#4caf50" stroke-width="2.5" stroke-opacity="0.6" filter="url(#neon)"/>
  
  <circle cx="480" cy="300" r="25" fill="white" stroke="#e53935" stroke-width="2" stroke-opacity="0.6"/>
  <path d="M475 300 L485 300 M480 295 L480 305" stroke="url(#redGradient)" stroke-width="3" stroke-linecap="round" filter="url(#glow)"/>
  <line x1="455" y1="300" x2="380" y2="300" stroke="#ef5350" stroke-width="2.5" stroke-opacity="0.6" filter="url(#neon)"/>
  
  <!-- Brighter floating particles with glow effects -->
  <circle cx="150" cy="120" r="5" fill="#4285F4" fill-opacity="0.8" filter="url(#glow)"/>
  <circle cx="450" cy="180" r="4" fill="#34a853" fill-opacity="0.8" filter="url(#glow)"/>
  <circle cx="380" cy="480" r="6" fill="#ea4335" fill-opacity="0.8" filter="url(#glow)"/>
  <circle cx="120" cy="420" r="5" fill="#fbbc05" fill-opacity="0.8" filter="url(#glow)"/>
  <circle cx="250" cy="150" r="4" fill="#5c6bc0" fill-opacity="0.8" filter="url(#glow)"/>
  <circle cx="520" cy="320" r="5" fill="#66bb6a" fill-opacity="0.8" filter="url(#glow)"/>
  <circle cx="180" cy="520" r="4" fill="#ef5350" fill-opacity="0.8" filter="url(#glow)"/>
  <circle cx="480" cy="420" r="4" fill="#ffd54f" fill-opacity="0.8" filter="url(#glow)"/>
  <circle cx="320" cy="80" r="5" fill="#4285F4" fill-opacity="0.8" filter="url(#glow)"/>
  <circle cx="200" cy="380" r="4" fill="#34a853" fill-opacity="0.8" filter="url(#glow)"/>
  <circle cx="280" cy="280" r="6" fill="#ea4335" fill-opacity="0.6" filter="url(#glow)"/>
  <circle cx="100" cy="220" r="5" fill="#fbbc05" fill-opacity="0.8" filter="url(#glow)"/>
  
  <!-- Data connection lines with glow effects -->
  <path d="M150 120 L250 150" stroke="#4285F4" stroke-width="1.5" stroke-opacity="0.6" filter="url(#neon)"/>
  <path d="M450 180 L520 320" stroke="#34a853" stroke-width="1.5" stroke-opacity="0.6" filter="url(#neon)"/>
  <path d="M380 480 L480 420" stroke="#ea4335" stroke-width="1.5" stroke-opacity="0.6" filter="url(#neon)"/>
  <path d="M120 420 L200 380" stroke="#fbbc05" stroke-width="1.5" stroke-opacity="0.6" filter="url(#neon)"/>
  <path d="M320 80 L250 150" stroke="#4285F4" stroke-width="1.5" stroke-opacity="0.6" filter="url(#neon)"/>
  <path d="M280 280 L200 380" stroke="#34a853" stroke-width="1.5" stroke-opacity="0.6" filter="url(#neon)"/>
  
  <!-- Enhanced grid lines with neon effect -->
  <path d="M100 100 L500 100 M100 200 L500 200 M100 300 L500 300 M100 400 L500 400 M100 500 L500 500 M100 100 L100 500 M200 100 L200 500 M300 100 L300 500 M400 100 L400 500 M500 100 L500 500" stroke="#4285F4" stroke-width="1" stroke-opacity="0.15" stroke-dasharray="5,5" filter="url(#neon)"/>
</svg>
